name Walk3.mot
datacolumns 19
datarows 12
range 1.56000000 1.57100000
endheader

                time	   L_ground_force_vx	   L_ground_force_vy	   L_ground_force_vz	   L_ground_force_px	   L_ground_force_py	   L_ground_force_pz	   R_ground_force_vx	   R_ground_force_vy	   R_ground_force_vz	   R_ground_force_px	   R_ground_force_py	   R_ground_force_pz	   L_ground_torque_x	   L_ground_torque_y	   L_ground_torque_z	   R_ground_torque_x	   R_ground_torque_y	   R_ground_torque_z	
          1.56000000	         10.44494498	        620.82838198	         31.04414902	         -0.35885391	          0.00000000	         -0.04284766	          0.00000000	          0.00000000	          0.00000000	          0.00000000	          0.00000000	          0.00000000	          0.00000000	         -2.36149760	          0.00000000	          0.00000000	          0.00000000	          0.00000000	
          1.56100000	         10.67028102	        621.56344053	         31.15725695	         -0.35834398	          0.00000000	         -0.04289559	          0.00000000	          0.00000000	          0.00000000	          0.00000000	          0.00000000	          0.00000000	          0.00000000	         -2.38442349	          0.00000000	          0.00000000	          0.00000000	          0.00000000	
          1.56200000	         10.90305133	        622.41500568	         31.28678664	         -0.35784743	          0.00000000	         -0.04290998	          0.00000000	          0.00000000	          0.00000000	          0.00000000	          0.00000000	          0.00000000	          0.00000000	         -2.40536030	          0.00000000	          0.00000000	          0.00000000	          0.00000000	
          1.56300000	         11.12897926	        623.34806484	         31.43125970	         -0.35733919	          0.00000000	         -0.04290967	          0.00000000	          0.00000000	          0.00000000	          0.00000000	          0.00000000	          0.00000000	          0.00000000	         -2.42137364	          0.00000000	          0.00000000	          0.00000000	          0.00000000	
          1.56400000	         11.33041303	        624.32117177	         31.58374155	         -0.35678411	          0.00000000	         -0.04292043	          0.00000000	          0.00000000	          0.00000000	          0.00000000	          0.00000000	          0.00000000	          0.00000000	         -2.43184500	          0.00000000	          0.00000000	          0.00000000	          0.00000000	
          1.56500000	         11.50470571	        625.29199603	         31.73343556	         -0.35617641	          0.00000000	         -0.04295876	          0.00000000	          0.00000000	          0.00000000	          0.00000000	          0.00000000	          0.00000000	          0.00000000	         -2.44179014	          0.00000000	          0.00000000	          0.00000000	          0.00000000	
          1.56600000	         11.66564454	        626.23854517	         31.87831520	         -0.35554368	          0.00000000	         -0.04302289	          0.00000000	          0.00000000	          0.00000000	          0.00000000	          0.00000000	          0.00000000	          0.00000000	         -2.45426407	          0.00000000	          0.00000000	          0.00000000	          0.00000000	
          1.56700000	         11.81602968	        627.15808009	         32.03029838	         -0.35491339	          0.00000000	         -0.04310116	          0.00000000	          0.00000000	          0.00000000	          0.00000000	          0.00000000	          0.00000000	          0.00000000	         -2.46675377	          0.00000000	          0.00000000	          0.00000000	          0.00000000	
          1.56800000	         11.94035096	        628.06338508	         32.20030644	         -0.35428768	          0.00000000	         -0.04318618	          0.00000000	          0.00000000	          0.00000000	          0.00000000	          0.00000000	          0.00000000	          0.00000000	         -2.47883443	          0.00000000	          0.00000000	          0.00000000	          0.00000000	
          1.56900000	         12.02904859	        628.99201765	         32.38574635	         -0.35365990	          0.00000000	         -0.04327289	          0.00000000	          0.00000000	          0.00000000	          0.00000000	          0.00000000	          0.00000000	          0.00000000	         -2.49389654	          0.00000000	          0.00000000	          0.00000000	          0.00000000	
          1.57000000	         12.08644492	        629.97840919	         32.57843144	         -0.35303561	          0.00000000	         -0.04334725	          0.00000000	          0.00000000	          0.00000000	          0.00000000	          0.00000000	          0.00000000	          0.00000000	         -2.51172887	          0.00000000	          0.00000000	          0.00000000	          0.00000000	
          1.57100000	         12.11608029	        631.01428590	         32.77610449	         -0.35241871	          0.00000000	         -0.04339349	          0.00000000	          0.00000000	          0.00000000	          0.00000000	          0.00000000	          0.00000000	          0.00000000	         -2.52812813	          0.00000000	          0.00000000	          0.00000000	          0.00000000	
